<svg width="175" height="45" viewBox="0 0 175 45" fill="none" xmlns="http://www.w3.org/2000/svg">
<path d="M1.91625 9.60139V29.0001H6.825V22.9101H9.2925C11.8913 22.9101 13.8338 22.3064 15.0675 21.0726C16.3013 19.8389 16.9313 18.2639 16.9313 16.3476C16.9313 14.4314 16.3275 12.8301 15.12 11.5439C13.9388 10.2576 12.1013 9.60139 9.63375 9.60139H1.91625ZM6.825 18.5001V14.0901H9.63375C10.9988 14.0901 11.8913 15.0351 11.8913 16.2951C11.8913 17.5289 11.0775 18.5001 9.52875 18.5001H6.825ZM28.5091 29.3151C31.3966 29.3151 33.8116 28.3439 35.7279 26.4276C37.6704 24.4851 38.6416 22.1226 38.6416 19.3139C38.6416 16.5051 37.6704 14.1164 35.7279 12.1739C33.7854 10.2314 31.3704 9.26014 28.4829 9.26014C25.6216 9.26014 23.2066 10.2314 21.2641 12.1739C19.3216 14.1164 18.3504 16.5051 18.3504 19.3139C18.3504 22.1226 19.3216 24.5114 21.2379 26.4276C23.1804 28.3439 25.5954 29.3151 28.5091 29.3151ZM28.4829 24.4589C27.0654 24.4589 25.8579 23.9601 24.8866 22.9889C23.9154 22.0176 23.4166 20.7839 23.4166 19.2876C23.4166 17.8176 23.9154 16.5839 24.8866 15.6126C25.8579 14.6151 27.0654 14.1164 28.4829 14.1164C29.8741 14.1164 31.0816 14.6151 32.0529 15.5864C33.0504 16.5576 33.5491 17.7914 33.5754 19.2876C33.5754 20.7839 33.0766 22.0176 32.1054 22.9889C31.1341 23.9601 29.9266 24.4589 28.4829 24.4589ZM58.7694 29.0001L51.7082 18.1851L58.4282 9.60139H52.4957L46.3794 17.5814V9.60139H41.4707V29.0001H46.3794V24.5639L48.4794 22.0176L52.7844 29.0001H58.7694ZM74.3548 29.0001V24.4589H65.2985V21.5189H73.6985V17.0039H65.2985V14.1426H74.381V9.60139H60.3635V29.0001H74.3548ZM93.522 29.0001L89.322 21.8076C91.7107 20.6789 92.8657 18.4739 92.8657 16.0326C92.8657 14.1689 92.262 12.6464 91.0545 11.4389C89.847 10.2051 88.0882 9.60139 85.752 9.60139H77.667V29.0001H82.5757V22.5689H84.492L87.9045 29.0001H93.522ZM85.6995 14.0901C88.4295 13.8801 88.6657 18.4476 85.5157 18.2901H82.5757V14.0901H85.6995Z" fill="url(#paint0_linear_2_437)"/>
<path d="M112.998 29H97.2476V25.2987L106.094 14.0637H97.5626V9.60125H112.709V13.46L104.099 24.5375H112.998V29ZM131.952 26.4275C130.027 28.3525 127.621 29.315 124.734 29.315C121.846 29.315 119.422 28.3525 117.462 26.4275C115.537 24.5025 114.575 22.1312 114.575 19.3137C114.575 16.4962 115.546 14.1162 117.489 12.1737C119.431 10.2312 121.837 9.26 124.707 9.26C127.595 9.26 130.01 10.2312 131.952 12.1737C133.895 14.1162 134.866 16.4962 134.866 19.3137C134.866 22.1137 133.895 24.485 131.952 26.4275ZM124.707 24.4587C126.142 24.4587 127.35 23.9687 128.33 22.9887C129.31 22.0087 129.8 20.775 129.8 19.2875C129.765 17.7825 129.257 16.5487 128.277 15.5862C127.297 14.6062 126.107 14.1162 124.707 14.1162C123.29 14.1162 122.091 14.615 121.111 15.6125C120.131 16.5925 119.641 17.8175 119.641 19.2875C119.641 20.775 120.131 22.0087 121.111 22.9887C122.091 23.9687 123.29 24.4587 124.707 24.4587ZM150.19 20.1275V9.60125H155.02V29H151.319L142.499 18.605V29H137.695V9.60125H141.213L150.19 20.1275ZM172.835 29H158.844V9.60125H172.861V14.1425H163.779V17.0037H172.179V21.5187H163.779V24.4587H172.835V29Z" fill="url(#paint1_linear_2_437)"/>
<defs>
<linearGradient id="paint0_linear_2_437" x1="-38.4435" y1="-18.2431" x2="58.2457" y2="29.1893" gradientUnits="userSpaceOnUse">
<stop stop-color="#0052F1"/>
<stop offset="1" stop-color="white"/>
</linearGradient>
<linearGradient id="paint1_linear_2_437" x1="96.2501" y1="0" x2="191.25" y2="39.375" gradientUnits="userSpaceOnUse">
<stop offset="0.0927745" stop-color="white"/>
<stop offset="1" stop-color="#FF2E00"/>
</linearGradient>
</defs>
</svg>
